<svg class="railroad-diagram" width="298" height="101" viewBox="0 0 298 101" xmlns="http://www.w3.org/2000/svg" xmlns:xlink="http://www.w3.org/1999/xlink">
<g transform="translate(.5 .5)">
<g>
<path d="M20 30v20m10 -20v20m-10 -10h20"></path>
</g>
<path d="M40 40h10"></path>
<g>
<path d="M50 40h0"></path>
<path d="M248 40h0"></path>
<g class="non-terminal">
<path d="M50 40h0"></path>
<path d="M95.5 40h0"></path>
<rect x="50" y="29" width="45.5" height="22"></rect>
<text x="72.75" y="44">A-G</text>
</g>
<path d="M95.5 40h10"></path>
<g>
<path d="M105.5 40h0"></path>
<path d="M248 40h0"></path>
<path d="M105.5 40a10 10 0 0 0 10 -10v0a10 10 0 0 1 10 -10"></path>
<g>
<path d="M125.5 20h102.5"></path>
</g>
<path d="M228 20a10 10 0 0 1 10 10v0a10 10 0 0 0 10 10"></path>
<path d="M105.5 40h20"></path>
<g>
<path d="M125.5 40h0"></path>
<path d="M228 40h0"></path>
<path d="M125.5 40h20"></path>
<g class="terminal">
<path d="M145.5 40h4.25"></path>
<path d="M203.75 40h4.25"></path>
<rect x="149.75" y="29" width="54" height="22" rx="10" ry="10"></rect>
<text x="176.75" y="44">flat</text>
</g>
<path d="M208 40h20"></path>
<path d="M125.5 40a10 10 0 0 1 10 10v10a10 10 0 0 0 10 10"></path>
<g class="terminal">
<path d="M145.5 70h0"></path>
<path d="M208 70h0"></path>
<rect x="145.5" y="59" width="62.5" height="22" rx="10" ry="10"></rect>
<text x="176.75" y="74">sharp</text>
</g>
<path d="M208 70a10 10 0 0 0 10 -10v-10a10 10 0 0 1 10 -10"></path>
</g>
<path d="M228 40h20"></path>
</g>
</g>
<path d="M248 40h10"></path>
<path d="M 258 40 h 20 m -10 -10 v 20 m 10 -20 v 20"></path>
</g>
<style>
	svg {
		background-color: hsl(30,20%,95%);
	}
	path {
		stroke-width: 3;
		stroke: black;
		fill: rgba(0,0,0,0);
	}
	text {
		font: bold 14px monospace;
		text-anchor: middle;
		white-space: pre;
	}
	text.diagram-text {
		font-size: 12px;
	}
	text.diagram-arrow {
		font-size: 16px;
	}
	text.label {
		text-anchor: start;
	}
	text.comment {
		font: italic 12px monospace;
	}
	g.non-terminal text {
		/&#42;font-style: italic;&#42;/
	}
	rect {
		stroke-width: 3;
		stroke: black;
		fill: hsl(120,100%,90%);
	}
	rect.group-box {
		stroke: gray;
		stroke-dasharray: 10 5;
		fill: none;
	}
	path.diagram-text {
		stroke-width: 3;
		stroke: black;
		fill: white;
		cursor: help;
	}
	g.diagram-text:hover path.diagram-text {
		fill: #eee;
	}</style>
</svg>
